<mxfile host="app.diagrams.net" modified="2022-11-21T02:01:13.873Z" agent="5.0 (Windows NT 6.1; Win64; x64) AppleWebKit/537.36 (KHTML, like Gecko) Chrome/107.0.0.0 Safari/537.36" etag="JpMaMH_crWNqS5NXMTzm" version="20.5.3" type="github">
  <diagram id="iEC9vGZYHJLdtutGzgtn" name="第 1 页">
    <mxGraphModel dx="1422" dy="762" grid="1" gridSize="10" guides="1" tooltips="1" connect="1" arrows="1" fold="1" page="1" pageScale="1" pageWidth="827" pageHeight="1169" math="0" shadow="0">
      <root>
        <mxCell id="0" />
        <mxCell id="1" parent="0" />
        <mxCell id="xjRBId0y35h43kvvTDp6-7" value="&lt;div style=&quot;line-height: 100%;&quot;&gt;&lt;br&gt;&lt;/div&gt;&lt;div style=&quot;line-height: 100%;&quot;&gt;&lt;br&gt;&lt;/div&gt;" style="rounded=0;whiteSpace=wrap;html=1;align=left;" vertex="1" parent="1">
          <mxGeometry x="40" y="400" width="520" height="90" as="geometry" />
        </mxCell>
        <mxCell id="xjRBId0y35h43kvvTDp6-1" value="&lt;p&gt;电源模块&lt;/p&gt;" style="rounded=0;whiteSpace=wrap;html=1;" vertex="1" parent="1">
          <mxGeometry x="80" y="440" width="120" height="40" as="geometry" />
        </mxCell>
        <mxCell id="xjRBId0y35h43kvvTDp6-2" value="交换模块" style="rounded=0;whiteSpace=wrap;html=1;" vertex="1" parent="1">
          <mxGeometry x="240" y="440" width="120" height="40" as="geometry" />
        </mxCell>
        <mxCell id="xjRBId0y35h43kvvTDp6-4" value="ASIC芯片" style="rounded=0;whiteSpace=wrap;html=1;" vertex="1" parent="1">
          <mxGeometry x="400" y="440" width="120" height="40" as="geometry" />
        </mxCell>
        <mxCell id="xjRBId0y35h43kvvTDp6-16" value="&lt;div style=&quot;line-height: 100%;&quot;&gt;&lt;br&gt;&lt;/div&gt;&lt;div style=&quot;line-height: 100%;&quot;&gt;&lt;br&gt;&lt;/div&gt;" style="rounded=0;whiteSpace=wrap;html=1;align=left;" vertex="1" parent="1">
          <mxGeometry x="40" y="280" width="520" height="110" as="geometry" />
        </mxCell>
        <mxCell id="xjRBId0y35h43kvvTDp6-17" value="&lt;p&gt;平台驱动&lt;/p&gt;" style="rounded=0;whiteSpace=wrap;html=1;" vertex="1" parent="1">
          <mxGeometry x="80" y="340" width="120" height="40" as="geometry" />
        </mxCell>
        <mxCell id="xjRBId0y35h43kvvTDp6-18" value="网络驱动" style="rounded=0;whiteSpace=wrap;html=1;" vertex="1" parent="1">
          <mxGeometry x="240" y="340" width="120" height="40" as="geometry" />
        </mxCell>
        <mxCell id="xjRBId0y35h43kvvTDp6-19" value="ASIC驱动" style="rounded=0;whiteSpace=wrap;html=1;" vertex="1" parent="1">
          <mxGeometry x="400" y="315" width="120" height="40" as="geometry" />
        </mxCell>
        <mxCell id="xjRBId0y35h43kvvTDp6-20" value="&lt;p&gt;文件管理系统&lt;/p&gt;" style="rounded=0;whiteSpace=wrap;html=1;" vertex="1" parent="1">
          <mxGeometry x="80" y="290" width="120" height="40" as="geometry" />
        </mxCell>
        <mxCell id="xjRBId0y35h43kvvTDp6-22" value="&lt;div style=&quot;line-height: 100%;&quot;&gt;&lt;br&gt;&lt;/div&gt;&lt;div style=&quot;line-height: 100%;&quot;&gt;&lt;br&gt;&lt;/div&gt;" style="rounded=0;whiteSpace=wrap;html=1;align=left;" vertex="1" parent="1">
          <mxGeometry x="40" y="40" width="520" height="230" as="geometry" />
        </mxCell>
        <mxCell id="xjRBId0y35h43kvvTDp6-21" value="&lt;p&gt;设备管理系统&lt;/p&gt;" style="rounded=0;whiteSpace=wrap;html=1;" vertex="1" parent="1">
          <mxGeometry x="240" y="290" width="120" height="40" as="geometry" />
        </mxCell>
        <mxCell id="xjRBId0y35h43kvvTDp6-23" value="&lt;p&gt;LAG应用&lt;/p&gt;" style="rounded=0;whiteSpace=wrap;html=1;" vertex="1" parent="1">
          <mxGeometry x="80" y="145" width="120" height="40" as="geometry" />
        </mxCell>
        <mxCell id="xjRBId0y35h43kvvTDp6-24" value="BGP应用" style="rounded=0;whiteSpace=wrap;html=1;" vertex="1" parent="1">
          <mxGeometry x="240" y="80" width="120" height="40" as="geometry" />
        </mxCell>
        <mxCell id="xjRBId0y35h43kvvTDp6-25" value="SNMP应用" style="rounded=0;whiteSpace=wrap;html=1;" vertex="1" parent="1">
          <mxGeometry x="240" y="145" width="120" height="40" as="geometry" />
        </mxCell>
        <mxCell id="xjRBId0y35h43kvvTDp6-26" value="&lt;p&gt;硬件传感器应用&lt;/p&gt;" style="rounded=0;whiteSpace=wrap;html=1;" vertex="1" parent="1">
          <mxGeometry x="80" y="80" width="120" height="40" as="geometry" />
        </mxCell>
        <mxCell id="xjRBId0y35h43kvvTDp6-27" value="&lt;p&gt;LLDP应用&lt;/p&gt;" style="rounded=0;whiteSpace=wrap;html=1;" vertex="1" parent="1">
          <mxGeometry x="80" y="200" width="120" height="40" as="geometry" />
        </mxCell>
        <mxCell id="xjRBId0y35h43kvvTDp6-29" value="库函数" style="rounded=0;whiteSpace=wrap;html=1;" vertex="1" parent="1">
          <mxGeometry x="430" y="75" width="120" height="40" as="geometry" />
        </mxCell>
        <mxCell id="xjRBId0y35h43kvvTDp6-32" value="ASIC控制软件" style="rounded=0;whiteSpace=wrap;html=1;" vertex="1" parent="1">
          <mxGeometry x="430" y="125" width="120" height="40" as="geometry" />
        </mxCell>
        <mxCell id="xjRBId0y35h43kvvTDp6-33" value="SAI接口" style="rounded=0;whiteSpace=wrap;html=1;" vertex="1" parent="1">
          <mxGeometry x="430" y="170" width="120" height="40" as="geometry" />
        </mxCell>
        <mxCell id="xjRBId0y35h43kvvTDp6-34" value="SAI接口实现" style="rounded=0;whiteSpace=wrap;html=1;" vertex="1" parent="1">
          <mxGeometry x="430" y="215" width="120" height="40" as="geometry" />
        </mxCell>
        <mxCell id="xjRBId0y35h43kvvTDp6-35" value="硬件转发层" style="rounded=0;whiteSpace=wrap;html=1;" vertex="1" parent="1">
          <mxGeometry x="600" y="400" width="160" height="90" as="geometry" />
        </mxCell>
        <mxCell id="xjRBId0y35h43kvvTDp6-36" value="软件驱动层" style="rounded=0;whiteSpace=wrap;html=1;" vertex="1" parent="1">
          <mxGeometry x="600" y="340" width="160" height="40" as="geometry" />
        </mxCell>
        <mxCell id="xjRBId0y35h43kvvTDp6-37" value="Linux内核接口" style="rounded=0;whiteSpace=wrap;html=1;" vertex="1" parent="1">
          <mxGeometry x="600" y="290" width="160" height="40" as="geometry" />
        </mxCell>
        <mxCell id="xjRBId0y35h43kvvTDp6-38" value="其他库函数/文件" style="rounded=0;whiteSpace=wrap;html=1;" vertex="1" parent="1">
          <mxGeometry x="600" y="215" width="160" height="40" as="geometry" />
        </mxCell>
        <mxCell id="xjRBId0y35h43kvvTDp6-39" value="SONiC开源框架" style="rounded=0;whiteSpace=wrap;html=1;" vertex="1" parent="1">
          <mxGeometry x="600" y="160" width="160" height="40" as="geometry" />
        </mxCell>
        <mxCell id="xjRBId0y35h43kvvTDp6-51" value="用户态" style="rounded=0;whiteSpace=wrap;html=1;strokeColor=none;fillColor=none;" vertex="1" parent="1">
          <mxGeometry x="430" y="35" width="120" height="40" as="geometry" />
        </mxCell>
        <mxCell id="xjRBId0y35h43kvvTDp6-40" value="相关应用" style="rounded=0;whiteSpace=wrap;html=1;" vertex="1" parent="1">
          <mxGeometry x="600" y="110" width="160" height="40" as="geometry" />
        </mxCell>
        <mxCell id="xjRBId0y35h43kvvTDp6-55" value="交换机硬件" style="rounded=0;whiteSpace=wrap;html=1;strokeColor=none;fillColor=none;" vertex="1" parent="1">
          <mxGeometry x="240" y="400" width="120" height="40" as="geometry" />
        </mxCell>
        <mxCell id="xjRBId0y35h43kvvTDp6-56" value="内核态" style="rounded=0;whiteSpace=wrap;html=1;fillColor=none;strokeColor=none;" vertex="1" parent="1">
          <mxGeometry x="400" y="355" width="120" height="40" as="geometry" />
        </mxCell>
      </root>
    </mxGraphModel>
  </diagram>
</mxfile>
